<svg width="140" height="33" fill="none" xmlns="http://www.w3.org/2000/svg"><g clip-path="url(#clip0)" fill="#fff"><path d="M30.274 18.17c-.015 7.76-5.845 14.112-13.25 14.74 0 0-9.508.245-12.66-.035a3.287 3.287 0 0 1-2.633-1.994c.438.213.912.345 1.397.389 1.032.09 2.792.134 5.245.134 3.606 0 7.515-.1 7.555-.1h.07a15.458 15.458 0 0 0 10.192-5.086 16.186 16.186 0 0 0 4.064-8.94c.015.284.02.588.02.892z"/><path d="M29.112 14.934c0 7.76-5.844 14.107-13.25 14.725 0 0-9.508.25-12.66-.03-1.69-.15-2.957-1.77-2.992-3.56L.24 3.655C.29 1.865 1.562.249 3.257.11c3.157-.265 12.66.03 12.66.03 7.4.658 13.195 7.035 13.195 14.794zm9.554-5.754a.414.414 0 0 1 .408-.409h6.632c.225 0 .594 0 .818.04 0 0 3.027.309 4.438.997a7.848 7.848 0 0 1 3.286 2.992 8.476 8.476 0 0 1 1.167 4.488 8.476 8.476 0 0 1-1.167 4.488 7.848 7.848 0 0 1-3.286 2.991c-1.411.708-4.438.998-4.438.998-.224 0-.593.04-.818.04h-6.622a.414.414 0 0 1-.409-.41l-.01-16.215zm6.9 13.957c.225 0 .594 0 .819-.04.987-.088 1.958-.31 2.887-.658a5.13 5.13 0 0 0 2.194-2.045c.526-.94.79-2.004.767-3.081a6.048 6.048 0 0 0-.767-3.082 5.136 5.136 0 0 0-2.194-2.044c-.928-.37-1.9-.61-2.892-.718h-4.14a.414.414 0 0 0-.41.409v10.87a.414.414 0 0 0 .41.409l3.326-.02zm25.127-3.261a.45.45 0 0 1-.439.409h-9.38a.264.264 0 0 0-.263.384 4.986 4.986 0 0 0 1.256 1.89c.82.58 1.808.877 2.813.842 1.43 0 3.19-1.182 3.19-1.182a.498.498 0 0 1 .61.08l1.091 1.257a.429.429 0 0 1-.03.588 7.854 7.854 0 0 1-1.92 1.287 8.78 8.78 0 0 1-6.796-.32 6.134 6.134 0 0 1-2.518-2.373 6.707 6.707 0 0 1-.888-3.446 6.8 6.8 0 0 1 .863-3.42 6.144 6.144 0 0 1 2.399-2.374 7.006 7.006 0 0 1 3.46-.853 6.822 6.822 0 0 1 3.396.843 5.95 5.95 0 0 1 2.338 2.364 7.166 7.166 0 0 1 .838 3.52c0 .224-.02.504-.02.504zm-9.025-3.92a5.121 5.121 0 0 0-1.102 1.91.284.284 0 0 0 .284.39h6.557a.284.284 0 0 0 .29-.395 5.04 5.04 0 0 0-1.073-1.895 3.625 3.625 0 0 0-2.493-.877 3.669 3.669 0 0 0-2.463.867zm23.491-3.146a.249.249 0 0 1 .249.379l-5.25 12.242a.678.678 0 0 1-.574.379h-2.319a.678.678 0 0 1-.573-.38l-5.256-12.24a.25.25 0 0 1 .25-.379h2.343a.668.668 0 0 1 .569.379l3.724 8.886c.09.21.235.21.325 0l3.819-8.886a.679.679 0 0 1 .574-.379h2.119zm6.781-1.077a3.216 3.216 0 0 0-.12.783.404.404 0 0 0 .41.389h2.757a.414.414 0 0 1 .409.409v1.615a.413.413 0 0 1-.41.41h-2.662a.414.414 0 0 0-.409.408v9.659a.413.413 0 0 1-.409.409h-2.224a.414.414 0 0 1-.408-.41v-9.653a.413.413 0 0 0-.41-.409h-1.32a.414.414 0 0 1-.41-.409V13.32a.414.414 0 0 1 .41-.41h1.306a.414.414 0 0 0 .409-.408c.003-.274.025-.547.064-.818 0 0 .34-2.09 1.152-2.892a4.672 4.672 0 0 1 3.436-1.207 6.787 6.787 0 0 1 2.378.539.444.444 0 0 1 .235.553l-.564 1.496a.363.363 0 0 1-.498.205 3.567 3.567 0 0 0-1.312-.354c-1.311.01-1.81 1.71-1.81 1.71zm7.59 13.398a6.209 6.209 0 0 1-2.493-2.373 6.706 6.706 0 0 1-.888-3.446 6.638 6.638 0 0 1 .888-3.435 6.237 6.237 0 0 1 2.493-2.364 7.888 7.888 0 0 1 7.135 0 6.248 6.248 0 0 1 2.494 2.364 6.633 6.633 0 0 1 .887 3.435 6.71 6.71 0 0 1-.887 3.446 6.225 6.225 0 0 1-2.494 2.373 7.886 7.886 0 0 1-7.135 0zm6.333-2.872c.371-.392.659-.856.847-1.362a4.02 4.02 0 0 0 .25-1.585 4.039 4.039 0 0 0-1.097-2.947 3.722 3.722 0 0 0-2.778-1.122 3.682 3.682 0 0 0-2.762 1.122 4.055 4.055 0 0 0-1.082 2.947 4.052 4.052 0 0 0 1.082 2.947 3.666 3.666 0 0 0 2.762 1.122 3.719 3.719 0 0 0 2.773-1.122h.005zm14.271-12.117a1.787 1.787 0 0 1 0-2.608 1.95 1.95 0 0 1 1.386-.498c.51-.018 1.008.16 1.391.498a1.604 1.604 0 0 1 .559 1.257 1.838 1.838 0 0 1-.549 1.351 1.9 1.9 0 0 1-1.401.549 1.953 1.953 0 0 1-1.386-.549zm-.145 3.077a.414.414 0 0 1 .409-.409h2.224a.416.416 0 0 1 .409.409v12.187a.416.416 0 0 1-.409.409h-2.224a.416.416 0 0 1-.409-.41V13.22zm9.324 11.912a6.211 6.211 0 0 1-2.493-2.373 6.7 6.7 0 0 1-.887-3.446 6.635 6.635 0 0 1 .912-3.435 6.24 6.24 0 0 1 2.493-2.364 7.89 7.89 0 0 1 7.136 0 6.252 6.252 0 0 1 2.493 2.364 6.634 6.634 0 0 1 .843 3.435 6.711 6.711 0 0 1-.888 3.446 6.216 6.216 0 0 1-2.493 2.373 7.89 7.89 0 0 1-7.136 0h.02zm6.333-2.872a4.04 4.04 0 0 0 1.097-2.947 4.037 4.037 0 0 0-1.097-2.947 3.722 3.722 0 0 0-2.777-1.122 3.676 3.676 0 0 0-2.763 1.122 4.062 4.062 0 0 0-1.082 2.947 4.061 4.061 0 0 0 1.082 2.947 3.685 3.685 0 0 0 2.763 1.122 3.717 3.717 0 0 0 2.777-1.122zM112.948 8.153a.414.414 0 0 1 .409-.41h2.224a.412.412 0 0 1 .408.41v17.253a.412.412 0 0 1-.408.409h-2.199a.414.414 0 0 1-.409-.41l-.025-17.252z"/></g><defs><clipPath id="clip0"><path fill="#fff" d="M0 0h140v33H0z"/></clipPath></defs></svg>